<?xml version="1.0" encoding="iso-8859-1"?>
<!-- Generator: Adobe Illustrator 27.0.1, SVG Export Plug-In . SVG Version: 6.00 Build 0)  -->
<svg version="1.1" id="Layer_1" xmlns="http://www.w3.org/2000/svg" xmlns:xlink="http://www.w3.org/1999/xlink" x="0px" y="0px"
	 viewBox="0 0 365.354 152.296" style="enable-background:new 0 0 365.354 152.296;" xml:space="preserve">
<g>
	<path d="M216.041,114.455c-1.29-0.526-2.686-0.434-4.022-0.711c-3.64-0.754-7.026-2.041-9.804-4.63
		c-3.935-3.666-5.252-8.36-4.889-13.589c0.539-7.748,4.49-12.755,11.85-15.029c6.329-1.955,12.729-1.955,19.019,0.085
		c8.49,2.753,12.312,9.672,11.393,18.573c-0.79,7.651-6.035,12.91-14.384,14.54c-1.285,0.251-2.596,0.369-3.895,0.549
		c-0.404,0.167-0.827,0.053-1.241,0.087c-1.102,0.07-2.215-0.148-3.31,0.125C216.519,114.455,216.28,114.455,216.041,114.455z
		 M211.509,82.715c-4.679,1.192-8.398,3.591-10.166,8.41c-0.879,2.396-1.047,4.889-0.82,7.395c0.477,5.256,2.993,9.139,7.872,11.178
		c5.44,2.274,11.092,2.346,16.763,1.133c7.087-1.516,10.812-5.696,11.328-12.972c0.489-6.905-2.407-12.482-9.523-14.755
		c-2.724-0.87-5.519-1.154-8.354-1.166C216.212,81.919,213.837,82.121,211.509,82.715z"/>
	<path d="M363.997,79.804c0.081-0.004,0.162-0.007,0.243-0.011c0,0.97,0,1.939,0,2.909c-5.085,0.022-10.17,0.043-15.255,0.065
		c0.078-0.839,0.762-0.651,1.226-0.665c2.061-0.061,4.123-0.023,6.185-0.026c1.864-0.003,3.728-0.027,5.591,0.01
		c0.999,0.02,1.744-0.144,1.672-1.403C363.641,80.36,363.77,80.052,363.997,79.804z"/>
	<path d="M216.758,114.455c1.095-0.52,2.243-0.144,3.365-0.204c0.064,0.052,0.082,0.099,0.055,0.142
		c-0.025,0.041-0.05,0.062-0.074,0.062C218.989,114.455,217.874,114.455,216.758,114.455z"/>
	<path d="M220.105,114.455c0.001-0.069,0.007-0.137,0.018-0.204c0.395-0.002,0.791-0.005,1.186-0.007
		c-0.017,0.07-0.02,0.14-0.009,0.212C220.902,114.455,220.503,114.455,220.105,114.455z"/>
	<path d="M26.94,67.097c2.001,1.992,4.33,2.86,7.027,3.038c1.883,0.124,3.5,1.266,5.207,2.029c0.577,0.258,0.306,0.775,0.308,1.169
		c0.051,9.256,2.655,17.707,8.193,25.056c8.942,11.867,20.881,17.709,35.625,17.005c19.579-0.935,35.509-15.493,38.871-35.179
		c3.788-22.177-11.139-44.117-32.913-48.242c-13.108-2.484-24.852,0.613-35.145,9.253c-0.337,0.283-0.675,0.563-1.015,0.842
		c-0.027,0.022-0.071,0.025-0.107,0.036c-1.184-1.727-1.189-2.277-0.167-3.951c1.794-2.94,1.695-5.899-0.088-8.786
		c-0.468-0.757-0.429-1.055,0.357-1.517c10.835-6.359,22.451-8.887,34.882-7.283c24.258,3.129,43.433,22.025,47.399,46.279
		c1.77,10.823-0.598,20.621-5.794,29.981c-4.554,8.203-10.107,15.665-16.183,22.742c-9.591,11.17-20.121,21.364-31.296,30.89
		c-0.827,0.705-1.264,0.626-2.029-0.03c-14.444-12.397-27.989-25.682-39.387-41.073c-5.106-6.894-9.558-14.178-12.45-22.365
		c-2.178-6.165-2.455-12.45-1.54-18.853C26.739,67.831,26.836,67.533,26.94,67.097z"/>
	<path d="M263.648,62.919c-2.427,1.311-4.634,2.573-7.011,3.47c-5.54,2.09-11.179,2.876-16.93,1.022
		c-5.101-1.645-7.842-5.558-7.848-10.985c-0.008-7.228,0.012-14.455-0.02-21.683c-0.004-0.896,0.139-1.27,1.147-1.233
		c2.306,0.086,4.619,0.067,6.927,0.006c0.848-0.022,1.052,0.237,1.047,1.074c-0.035,5.976-0.031,11.952-0.008,17.928
		c0.004,1.045,0.076,2.103,0.249,3.132c0.537,3.205,2.607,4.954,5.923,5.26c3.432,0.316,6.61-0.553,9.709-1.905
		c2.088-0.911,4.025-2.085,5.88-3.417c0.68-0.489,0.963-1.013,0.958-1.886c-0.04-6.299-0.001-12.598-0.044-18.896
		c-0.007-0.961,0.167-1.332,1.209-1.294c2.346,0.084,4.698,0.052,7.047,0.011c0.686-0.012,0.865,0.204,0.864,0.885
		c-0.019,10.74-0.019,21.481-0.001,32.221c0.001,0.617-0.134,0.829-0.781,0.819c-2.508-0.039-5.017-0.035-7.525-0.002
		c-0.622,0.008-0.832-0.166-0.805-0.812C263.684,65.466,263.648,64.295,263.648,62.919z"/>
	<path d="M180.626,43.159c-3.807-1.707-7.573-2.824-11.51-3.221c-3.213-0.324-6.439-0.398-9.623,0.331
		c-1.016,0.233-2.157,0.522-2.288,1.776c-0.138,1.327,1.049,1.714,1.985,2.078c3.168,1.232,6.538,1.674,9.821,2.458
		c3.176,0.759,6.316,1.611,9.209,3.193c5.34,2.919,6.824,8.907,3.346,13.466c-1.828,2.397-4.395,3.561-7.201,4.167
		c-7.325,1.581-14.623,1.242-21.869-0.577c-1.23-0.309-2.437-0.719-3.647-1.103c-0.317-0.101-0.702-0.14-0.699-0.662
		c0.016-2.528,0.007-5.056,0.007-7.748c2.853,1.544,5.721,2.581,8.724,3.192c4.441,0.903,8.908,1.178,13.399,0.375
		c0.824-0.147,1.62-0.393,2.371-0.775c0.787-0.401,1.434-0.971,1.487-1.898c0.056-0.972-0.647-1.512-1.41-1.925
		c-1.705-0.924-3.585-1.29-5.446-1.701c-3.685-0.815-7.424-1.402-11-2.675c-1.727-0.615-3.388-1.363-4.908-2.425
		c-5.062-3.538-4.182-10.804,0.252-13.777c2.419-1.622,5.141-2.321,7.958-2.68c6.815-0.868,13.48-0.046,20.046,1.896
		c0.783,0.231,1.044,0.562,1.017,1.404C180.579,38.543,180.626,40.762,180.626,43.159z"/>
	<path d="M226.202,44.198c-2.149-1.095-4.131-2.183-6.291-2.842c-5.532-1.687-11.134-2.095-16.68-0.294
		c-6.693,2.174-9.209,10.048-5.082,15.5c1.944,2.568,4.75,3.6,7.753,4.064c6.756,1.045,13.241,0.201,19.26-3.262
		c0.963-0.554,1.08-0.316,1.056,0.66c-0.052,2.099-0.021,4.201-0.012,6.301c0.002,0.461-0.007,0.821-0.556,1.038
		c-9.522,3.763-19.149,4.409-28.703,0.41c-12.239-5.124-11.86-20.065-5.859-26.386c3.046-3.209,6.814-4.991,11.015-5.847
		c7.902-1.61,15.654-1.077,23.19,1.98c0.712,0.289,0.944,0.641,0.928,1.405C226.17,39.294,226.202,41.665,226.202,44.198z"/>
	<path d="M150.108,96.657c0-5.289,0.021-10.579-0.021-15.867c-0.007-0.865,0.247-1.061,1.065-1.055
		c6.29,0.047,12.58,0.028,18.87,0.069c2.033,0.013,4.032,0.344,5.985,0.95c5.139,1.593,7.231,5.287,6.676,10.777
		c-0.495,4.896-3.228,7.573-8.419,8.597c-1.719,0.339-3.459,0.52-5.217,0.516c-4.937-0.013-9.875,0.018-14.811-0.026
		c-0.85-0.007-1.05,0.233-1.039,1.073c0.047,3.674-0.005,7.348,0.04,11.022c0.01,0.815-0.237,1.004-1.004,0.995
		c-2.124-0.026-2.124,0.01-2.124-2.152C150.108,106.589,150.108,101.623,150.108,96.657z M169.653,97.717
		c1.19-0.022,2.391-0.103,3.565-0.294c5.776-0.938,6.948-4.89,6.148-9.489c-0.335-1.927-1.493-3.251-3.264-4.02
		c-1.367-0.594-2.807-0.862-4.281-0.979c-5.925-0.471-11.861-0.116-17.79-0.248c-0.728-0.016-0.829,0.276-0.826,0.911
		c0.023,4.402,0.031,8.804-0.006,13.206c-0.006,0.748,0.182,0.955,0.923,0.944c2.787-0.045,5.575-0.018,8.363-0.018
		C164.874,97.73,167.264,97.761,169.653,97.717z"/>
	<path d="M283.409,85.577c2.097-1.202,3.997-2.431,6.027-3.427c4.857-2.382,9.928-3.657,15.35-3.076
		c3.595,0.385,6.83,1.548,9.025,4.714c1.304,1.881,1.843,4.025,1.853,6.278c0.036,7.514-0.006,15.028,0.038,22.542
		c0.006,0.968-0.314,1.122-1.158,1.099c-1.933-0.052-1.934-0.009-1.934-1.96c0-6.787,0.035-13.574-0.01-20.361
		c-0.042-6.326-2.9-9.177-9.128-9.426c-6.781-0.271-12.663,2.163-18.218,5.827c-1.438,0.948-1.914,2.011-1.888,3.733
		c0.103,6.947,0.022,13.896,0.065,20.845c0.006,1.013-0.158,1.546-1.277,1.332c-0.308-0.059-0.642-0.049-0.953-0.001
		c-0.766,0.117-0.917-0.229-0.916-0.949c0.021-10.705,0.02-21.411,0.002-32.116c-0.001-0.651,0.126-0.893,0.834-0.898
		c2.288-0.017,2.287-0.052,2.287,2.221C283.409,83.111,283.409,84.27,283.409,85.577z"/>
	<path d="M363.997,79.804c0.026,2.659,0.026,2.659-2.599,2.659c-3.744,0-7.488-0.008-11.231,0.011
		c-0.398,0.002-0.893-0.23-1.182,0.293c-0.001,9.85-0.018,19.7,0.02,29.55c0.004,1.058-0.198,1.597-1.334,1.375
		c-0.154-0.03-0.322-0.027-0.476,0c-0.964,0.166-1.291-0.17-1.269-1.217c0.071-3.389,0.027-6.781,0.027-10.173
		c0-6.177-0.019-12.353,0.022-18.529c0.006-0.893-0.19-1.146-1.102-1.135c-4.378,0.054-8.758,0.003-13.137,0.044
		c-0.798,0.008-0.993-0.228-0.979-1.009c0.033-1.919-0.007-1.92,1.835-1.92c10.032,0,20.064-0.001,30.096,0.002
		C363.124,79.755,363.561,79.787,363.997,79.804z"/>
	<path d="M260.385,96.661c0,5.289-0.026,10.579,0.024,15.868c0.009,0.977-0.28,1.213-1.199,1.182
		c-1.937-0.065-1.939-0.014-1.939-1.981c0-10.215,0.021-20.43-0.029-30.645c-0.006-1.147,0.332-1.507,1.384-1.339
		c0.233,0.037,0.482,0.036,0.715,0c0.825-0.128,1.071,0.188,1.065,1.047C260.365,86.082,260.385,91.372,260.385,96.661z"/>
	<path d="M30.301,39.668c4.105,4.552,5.847,10.08,6.724,15.975c0.067,0.449-0.029,1.055,0.419,1.298
		c0.364,0.197,0.895,0.114,1.274-0.112c0.388-0.23,0.048-0.577-0.027-0.851c-0.395-1.428-0.304-2.819,0.11-4.24
		c1.806-6.188,1.406-12.25-0.904-18.27c-1.33-3.466-1.901-7.159-2.556-10.804c-0.677-3.767-1.264-7.552-1.814-11.34
		c-0.408-2.814,0.291-5.464,1.471-8.006c0.067-0.143,0.147-0.291,0.257-0.402c1.061-1.068,2.469-1.716,3.754-2.297
		c1.656-0.749,4.589,1.475,4.913,3.391c0.179,1.058,0.194,2.143,0.286,3.215c0.126,1.465,0.304,2.913,0.59,4.367
		c0.39,1.979-0.298,3.956-0.511,5.934c-0.328,3.046-0.978,6.068-0.625,9.161c0.242,2.121,1.03,3.996,2.45,5.604
		c0.368,0.416,0.721,0.857,1.013,1.328c0.802,1.293,0.752,2.269-0.328,3.348c-0.912,0.911-1.205,1.906-1.278,3.193
		c-0.167,2.96,0.497,5.684,1.706,8.339c0.988,2.169,1.314,4.434,0.612,6.755c-0.199,0.656,0.053,0.975,0.592,0.999
		c2.253,0.101,4.539,0.726,6.534-1.172c1.518-1.444,3.54-1.216,5.466-0.853c1.418,0.267,2.78,0.71,4.048,1.403
		c0.559,0.305,0.996,0.313,1.493-0.163c0.63-0.603,1.452-0.922,2.531-1.26c-1.805-0.716-3.384-1.323-4.946-1.97
		c-1.067-0.442-2.102-0.955-3.068-1.602c-0.744-0.498-1.046-1.134-0.905-2.037c0.393-2.519,1.455-4.717,3.141-6.605
		c1.118-1.252,1.834-1.37,3.368-0.73c9.374,3.907,18.734,7.846,28.131,11.697c2.941,1.205,3.957,2.381,3.263,6.552
		c-0.19,1.143,0.351,1.116,1.023,1.36c0.934,0.34,0.926-0.292,1.071-0.881c0.54-2.196,0.538-2.151,2.683-1.488
		c0.948,0.293,1.248,0.618,0.57,1.485c-0.365,0.467-0.602,1.032-0.921,1.537c-0.347,0.548-0.558,1.014-0.265,1.746
		c0.396,0.988-0.164,1.805-1.304,2.151c-0.96,0.292-1.41,0.914-1.557,2.016c1.174-0.845,2.187-1.682,3.558-1.836
		c0.611-0.069,1.225-0.106,1.775,0.111c2.896,1.141,5.342,2.869,6.864,5.666c0.744,1.367,0.796,2.82,0.169,4.271
		c-0.589,1.361-1.263,2.676-2.316,3.741c-0.355,0.359-0.352,0.596-0.06,0.992c0.427,0.577,0.739,1.231,0.817,1.966
		c0.269,2.538-1.95,4.148-4.906,3.574c-0.504-0.098-0.979-0.362-1.516-0.273c-1.012,0.169-2.034,0.226-2.46,1.487
		c-0.226,0.668-0.883,1.117-1.503,1.5c-2.162,1.337-4.138,0.505-4.738-1.964c-0.339-1.396-0.174-2.779,0.025-4.162
		c0.103-0.719-0.112-1.004-0.875-1.005c-1.085-0.001-2.151,0.122-3.216,0.28c-0.31,0.046-0.641,0.109-0.857,0.381
		c-0.882,1.111-2.104,1.662-3.65,2.111c1.862,1.3,2.213,3.348,3.111,5.09c0.908,1.761,2.296,2.992,4.056,3.922
		c3.073,1.624,4.68,4.234,4.745,7.738c0.008,0.438,0.157,1.083-0.47,1.167c-0.688,0.093-1.356,0.804-2.123-0.328
		c-0.703-1.037-1.079-1.837-0.771-3.09c0.264-1.075-0.765-1.25-1.534-1.418c-0.45-0.098-1.092-0.348-1.366,0.004
		c-0.315,0.404,0.234,0.844,0.455,1.245c0.23,0.419,0.527,0.803,0.732,1.232c0.147,0.307,0.366,0.713,0.016,0.987
		c-0.299,0.234-0.691,0.116-1.019-0.063c-1.085-0.594-1.737-1.631-2.524-2.522c-1.25-1.417-2.442-2.858-2.17-4.978
		c0.088-0.682-0.446-1.175-1.035-1.496c-2.764-1.511-4.714-3.726-5.977-6.616c-0.638-1.461-1.175-1.499-2.462-0.494
		c-1.546,1.207-3.269,2.138-4.936,3.156c-0.338,0.206-0.812,0.307-0.45,0.965c1.21,2.2,1.359,4.637,1.436,7.08
		c0.016,0.519,0.035,1.038,0.037,1.557c0.008,2.013,0.852,3.434,2.825,4.102c0.942,0.319,1.869,0.687,2.794,1.055
		c0.742,0.295,1.457,0.65,2.08,1.161c0.402,0.33,0.655,0.736,0.397,1.253c-0.261,0.521-0.781,0.579-1.248,0.43
		c-0.68-0.216-1.308-0.594-1.988-0.806c-0.695-0.216-1.743-0.689-2.023,0.123c-0.245,0.711,0.861,0.979,1.523,1.175
		c0.992,0.293,2.018,0.469,3.019,0.735c1.031,0.275,1.263,0.745,0.616,1.515c-1.331,1.585-2.966,2.802-5.025,3.254
		c-1.36,0.299-2.612-0.109-3.675-1.022c-1.122-0.963-1.951-2.14-2.225-3.598c-1.194-6.361-3.783-12.24-6.298-18.133
		c-0.898-2.103-0.637-3.738,0.93-5.318c1.038-1.047,2.01-2.164,2.961-3.292c0.968-1.148,0.934-1.202-0.336-1.889
		c-1.157-0.625-2.293-1.292-3.474-1.868c-1.381-0.674-2.304-1.73-2.704-3.181c-0.658-2.386-2.356-3.329-4.637-3.364
		c-2.349-0.036-4.7,0.097-7.05,0.118c-3.821,0.034-7.41-0.954-10.853-2.548c-2.14-0.991-4.298-1.878-6.71-2.003
		c-1.666-0.087-2.931-1.064-3.104-2.667c-0.385-3.57-1.779-6.859-2.548-10.315c-0.644-2.894-0.932-5.823-1.145-8.769
		c-0.24-3.317-1.587-6.233-3.401-8.951c-0.749-1.122-1.96-1.747-3.055-2.468c-3.537-2.331-7.006-4.745-10.054-7.71
		c-3.322-3.233-6.065-6.88-7.862-11.181c-0.887-2.123-0.683-2.547,1.416-3.434c0.402-0.17,0.883-0.298,1.158-0.6
		c1.708-1.869,4.076-2.212,6.329-2.82c2.285-0.616,3.535,0.022,4.153,2.321c0.836,3.113,1.473,6.275,2.618,9.307
		c1.526,4.04,4.073,7.48,6.386,11.054c0.75,1.158,1.997,1.807,3.28,2.316c1.52,0.603,3.018,1.254,4.406,2.132
		c1.977,1.25,2.22,2.919,0.652,4.674C31.323,38.706,30.815,39.159,30.301,39.668z M108.442,83.935
		c0.622-0.999,0.207-1.91-0.323-2.788c-1.242-2.059-3.067-3.439-5.263-4.302c-1.285-0.505-2.538-0.196-3.531,0.768
		c-0.799,0.776-0.942,1.802-0.413,2.751c1.506,2.705,3.839,4.258,6.546,4.701C106.845,85.02,107.838,84.903,108.442,83.935z
		 M95.111,70.743c0.026,0.26-0.19,0.683,0.356,0.687c0.932-1.073,1.878-2.094,1.427-3.752c-0.198-0.726,0.214-1.495,0.671-2.103
		c0.537-0.715,0.124-1.119-0.415-1.426c-0.566-0.322-1.191-0.491-1.671,0.208c-0.727,1.058-1.441,2.1-0.68,3.471
		c0.182,0.328,0.16,0.769,0.231,1.158C95.181,69.568,95.052,70.161,95.111,70.743z M95.778,82.745
		c-0.536,1.089-0.672,2.147-0.314,3.244c0.294,0.901,0.691,1.736,1.807,1.796c1.108,0.059,1.872-0.461,2.434-1.682
		C97.021,86.447,96.147,84.912,95.778,82.745z"/>
	<path style="fill:#86A1B1;" d="M95.031,68.988c0.534,0.745-0.127,1.703,0.436,2.443c-0.246,0.4-0.459,0.487-0.47-0.097
		C94.981,70.552,95.017,69.77,95.031,68.988z"/>
	<path d="M310.385,49.928c0.645,0.112,1.234,0.201,1.818,0.318c5.05,1.009,7.064,3.905,6.491,9.224
		c-0.429,3.981-2.515,6.165-6.491,7.219c-1.934,0.512-3.91,0.737-5.906,0.739c-8.163,0.009-16.327-0.017-24.49,0.03
		c-1.021,0.006-1.216-0.287-1.212-1.269c0.038-10.459,0.044-20.918-0.006-31.376c-0.005-1.116,0.315-1.306,1.327-1.3
		c7.765,0.044,15.53,0.021,23.296,0.027c1.555,0.001,3.101,0.158,4.618,0.498c4.602,1.031,6.835,4.133,6.478,8.95
		C316.035,46.68,314.665,48.297,310.385,49.928z M290.705,53.48c-0.751-0.012-1.056,0.152-1.023,0.993
		c0.068,1.732,0.058,3.471,0.003,5.204c-0.024,0.76,0.215,0.951,0.942,0.943c3.303-0.038,6.606-0.016,9.909-0.017
		c1.948,0,3.898,0.055,5.838-0.202c2.025-0.268,3.06-1.232,3.158-2.965c0.139-2.448-0.916-3.589-3.553-3.816
		c-2.581-0.222-5.169-0.09-7.395-0.126C295.719,53.496,293.212,53.521,290.705,53.48z M290.705,40.391
		c-0.75-0.015-1.066,0.15-1.022,0.993c0.072,1.408,0.085,2.826-0.003,4.232c-0.06,0.963,0.306,1.118,1.153,1.109
		c4.016-0.042,8.034-0.012,12.05-0.024c0.793-0.002,1.589-0.04,2.359-0.274c1.803-0.547,2.495-1.704,2.136-3.576
		c-0.249-1.296-1.274-2.148-2.96-2.333c-2.418-0.266-4.848-0.034-6.834-0.111C295,40.406,292.852,40.435,290.705,40.391z"/>
	<path d="M352.767,64.179c-4.684,2.438-9.517,3.6-14.567,3.882c-3.48,0.195-6.924,0.027-10.211-1.3
		c-3.441-1.39-5.721-3.781-6.003-7.683c-0.302-4.181,1.477-7.23,5.128-9.177c3.687-1.965,7.706-2.723,11.766-3.303
		c4.374-0.624,8.776-0.979,13.185-1.197c0.752-0.037,0.742-0.374,0.695-0.891c-0.124-1.366-0.833-2.319-2.024-2.924
		c-2.305-1.171-4.803-1.364-7.313-1.414c-5.903-0.117-11.647,0.842-17.204,2.849c-0.997,0.36-1.104,0.116-1.079-0.809
		c0.056-2.058,0.033-4.119,0.007-6.178c-0.007-0.548,0.08-0.9,0.688-1.035c8.254-1.824,16.546-2.905,24.964-1.25
		c2.516,0.495,4.892,1.402,6.968,2.979c2.693,2.045,4.078,4.778,4.081,8.202c0.006,7.188-0.007,14.377,0.016,21.565
		c0.002,0.697-0.096,0.98-0.886,0.96c-2.428-0.061-4.859-0.066-7.287,0.001c-0.846,0.023-0.994-0.296-0.936-1.028
		C352.809,65.745,352.767,65.056,352.767,64.179z M338.198,53.392c-2.029,0.396-4.047,0.852-5.807,2.045
		c-0.954,0.646-1.338,1.563-1.229,2.698c0.102,1.061,0.812,1.635,1.703,1.982c0.624,0.243,1.284,0.444,1.945,0.53
		c6.002,0.78,11.591-0.49,16.846-3.486c0.878-0.5,1.256-1.083,1.124-2.098c-0.129-0.991,0.41-2.324-0.213-2.902
		c-0.517-0.48-1.811-0.098-2.761-0.098C345.916,52.362,342.031,52.643,338.198,53.392z"/>
</g>
</svg>
