<?xml version="1.0" encoding="iso-8859-1"?>
<!-- Generator: Adobe Illustrator 27.0.1, SVG Export Plug-In . SVG Version: 6.00 Build 0)  -->
<svg version="1.1" id="Layer_1" xmlns="http://www.w3.org/2000/svg" xmlns:xlink="http://www.w3.org/1999/xlink" x="0px" y="0px"
	 viewBox="0 0 365.354 152.296" style="enable-background:new 0 0 365.354 152.296;" xml:space="preserve">
<g>
	<path style="fill:#FFFEFF;" d="M215.644,114.858c-1.293-0.52-2.693-0.429-4.032-0.703c-3.65-0.746-7.044-2.019-9.83-4.579
		c-3.945-3.625-5.266-8.268-4.902-13.439c0.54-7.663,4.502-12.614,11.881-14.863c6.346-1.933,12.763-1.933,19.07,0.084
		c8.513,2.723,12.345,9.565,11.424,18.368c-0.792,7.566-6.051,12.767-14.423,14.379c-1.289,0.248-2.603,0.365-3.906,0.543
		c-0.405,0.166-0.83,0.052-1.244,0.086c-1.105,0.07-2.221-0.147-3.319,0.124C216.123,114.858,215.884,114.858,215.644,114.858z
		 M211.099,83.468c-4.692,1.179-8.421,3.552-10.193,8.317c-0.882,2.37-1.05,4.835-0.822,7.313c0.478,5.198,3.001,9.038,7.893,11.055
		c5.454,2.249,11.122,2.32,16.808,1.121c7.106-1.499,10.842-5.633,11.358-12.829c0.49-6.828-2.413-12.344-9.549-14.592
		c-2.732-0.86-5.534-1.141-8.377-1.153C215.815,82.681,213.434,82.882,211.099,83.468z"/>
	<path style="fill:#FFFEFF;" d="M363.996,80.59c0.081-0.003,0.163-0.007,0.244-0.01c0,0.959,0,1.918,0,2.877
		c-5.099,0.021-10.197,0.043-15.296,0.064c0.078-0.83,0.764-0.644,1.23-0.658c2.066-0.06,4.134-0.022,6.201-0.026
		c1.869-0.003,3.738-0.027,5.605,0.01c1.002,0.019,1.749-0.142,1.677-1.387C363.639,81.139,363.769,80.835,363.996,80.59z"/>
	<path style="fill:#FFFEFF;" d="M216.363,114.858c1.098-0.514,2.249-0.143,3.374-0.202c0.064,0.051,0.082,0.098,0.056,0.141
		c-0.025,0.041-0.05,0.061-0.074,0.061C218.6,114.858,217.481,114.858,216.363,114.858z"/>
	<path style="fill:#FFFEFF;" d="M219.718,114.858c0.001-0.068,0.007-0.135,0.018-0.202c0.396-0.002,0.793-0.005,1.189-0.007
		c-0.017,0.069-0.02,0.139-0.009,0.209C220.517,114.858,220.118,114.858,219.718,114.858z"/>
	<path style="fill:#FFFEFF;" d="M26.035,68.023c2.006,1.97,4.341,2.828,7.046,3.004c1.888,0.123,3.51,1.252,5.22,2.007
		c0.579,0.255,0.307,0.766,0.309,1.156c0.051,9.154,2.663,17.512,8.215,24.779c8.966,11.736,20.937,17.513,35.721,16.817
		c19.632-0.924,35.604-15.322,38.976-34.791c3.798-21.932-11.169-43.629-33.002-47.71c-13.144-2.456-24.919,0.606-35.24,9.15
		c-0.338,0.28-0.677,0.557-1.018,0.833c-0.027,0.022-0.071,0.024-0.107,0.036c-1.187-1.708-1.192-2.252-0.168-3.908
		c1.799-2.907,1.7-5.834-0.088-8.689c-0.469-0.749-0.43-1.044,0.358-1.5c10.864-6.288,22.511-8.789,34.976-7.203
		c24.323,3.095,43.55,21.781,47.527,45.768c1.774,10.703-0.6,20.393-5.81,29.65c-4.566,8.112-10.134,15.492-16.226,22.49
		c-9.616,11.047-20.175,21.128-31.38,30.549c-0.829,0.697-1.268,0.619-2.034-0.029c-14.483-12.26-28.064-25.399-39.493-40.619
		c-5.119-6.818-9.584-14.022-12.484-22.118c-2.184-6.097-2.462-12.312-1.544-18.645C25.834,68.749,25.931,68.454,26.035,68.023z"/>
	<path style="fill:#FFFEFF;" d="M263.378,63.891c-2.434,1.296-4.647,2.545-7.03,3.432c-5.555,2.067-11.209,2.844-16.976,1.01
		c-5.115-1.627-7.863-5.497-7.869-10.864c-0.008-7.148,0.012-14.296-0.02-21.443c-0.004-0.886,0.14-1.256,1.15-1.219
		c2.313,0.085,4.631,0.067,6.945,0.006c0.85-0.022,1.055,0.234,1.05,1.062c-0.035,5.91-0.031,11.82-0.008,17.73
		c0.004,1.034,0.076,2.08,0.249,3.098c0.538,3.17,2.614,4.9,5.939,5.202c3.441,0.313,6.628-0.547,9.735-1.884
		c2.094-0.901,4.036-2.062,5.896-3.379c0.682-0.483,0.966-1.002,0.96-1.865c-0.04-6.229-0.001-12.459-0.044-18.688
		c-0.007-0.951,0.167-1.317,1.212-1.28c2.353,0.083,4.711,0.051,7.066,0.011c0.688-0.012,0.868,0.202,0.867,0.875
		c-0.019,10.622-0.019,21.244-0.001,31.865c0.001,0.61-0.135,0.82-0.783,0.81c-2.515-0.038-5.031-0.034-7.545-0.002
		c-0.623,0.008-0.835-0.164-0.807-0.803C263.414,66.41,263.378,65.253,263.378,63.891z"/>
	<path style="fill:#FFFEFF;" d="M180.133,44.35c-3.818-1.688-7.594-2.793-11.541-3.186c-3.222-0.321-6.457-0.394-9.649,0.327
		c-1.019,0.23-2.163,0.517-2.294,1.757c-0.138,1.312,1.052,1.695,1.99,2.055c3.177,1.218,6.556,1.655,9.848,2.431
		c3.184,0.75,6.333,1.593,9.234,3.158c5.354,2.887,6.843,8.808,3.355,13.318c-1.833,2.37-4.407,3.522-7.22,4.121
		c-7.345,1.564-14.662,1.228-21.927-0.57c-1.234-0.305-2.443-0.711-3.657-1.091c-0.318-0.1-0.704-0.138-0.701-0.655
		c0.016-2.5,0.007-5,0.007-7.662c2.86,1.527,5.736,2.553,8.748,3.157c4.453,0.893,8.932,1.165,13.435,0.371
		c0.826-0.146,1.624-0.389,2.378-0.767c0.79-0.396,1.438-0.96,1.491-1.877c0.056-0.962-0.648-1.495-1.413-1.904
		c-1.709-0.913-3.594-1.275-5.46-1.682c-3.695-0.806-7.444-1.387-11.03-2.645c-1.732-0.608-3.397-1.347-4.922-2.399
		c-5.076-3.499-4.194-10.685,0.253-13.625c2.426-1.604,5.155-2.295,7.98-2.65c6.833-0.858,13.517-0.045,20.1,1.875
		c0.785,0.229,1.047,0.556,1.02,1.388C180.086,39.784,180.133,41.979,180.133,44.35z"/>
	<path style="fill:#FFFEFF;" d="M225.831,45.377c-2.155-1.083-4.142-2.159-6.308-2.811c-5.547-1.668-11.164-2.072-16.724-0.291
		c-6.711,2.15-9.234,9.937-5.096,15.329c1.949,2.539,4.763,3.56,7.774,4.019c6.775,1.034,13.277,0.199,19.311-3.226
		c0.966-0.548,1.083-0.313,1.058,0.653c-0.052,2.076-0.021,4.154-0.012,6.231c0.002,0.456-0.007,0.812-0.558,1.027
		c-9.547,3.722-19.201,4.361-28.78,0.405c-12.272-5.067-11.892-19.843-5.874-26.095c3.054-3.173,6.832-4.936,11.045-5.783
		c7.923-1.592,15.696-1.065,23.252,1.958c0.714,0.286,0.947,0.634,0.93,1.39C225.799,40.527,225.831,42.872,225.831,45.377z"/>
	<path style="fill:#FFFEFF;" d="M149.534,97.257c0-5.231,0.021-10.462-0.021-15.692c-0.007-0.856,0.247-1.05,1.067-1.044
		c6.307,0.046,12.614,0.028,18.921,0.068c2.039,0.013,4.043,0.341,6.001,0.939c5.153,1.576,7.25,5.229,6.694,10.658
		c-0.496,4.842-3.237,7.489-8.442,8.502c-1.724,0.336-3.468,0.515-5.231,0.51c-4.95-0.013-9.901,0.018-14.851-0.025
		c-0.852-0.007-1.053,0.231-1.042,1.061c0.047,3.633-0.005,7.267,0.04,10.9c0.01,0.806-0.238,0.993-1.006,0.984
		c-2.129-0.025-2.13,0.01-2.13-2.128C149.534,107.079,149.534,102.168,149.534,97.257z M169.131,98.305
		c1.193-0.022,2.397-0.102,3.574-0.29c5.792-0.928,6.967-4.836,6.164-9.384c-0.336-1.906-1.497-3.215-3.273-3.976
		c-1.371-0.587-2.815-0.853-4.293-0.968c-5.941-0.466-11.893-0.115-17.838-0.245c-0.73-0.016-0.831,0.272-0.828,0.901
		c0.023,4.353,0.031,8.707-0.006,13.06c-0.006,0.739,0.182,0.945,0.925,0.933c2.795-0.044,5.59-0.018,8.386-0.018
		C164.339,98.318,166.736,98.349,169.131,98.305z"/>
	<path style="fill:#FFFEFF;" d="M283.192,86.3c2.102-1.188,4.007-2.405,6.043-3.389c4.87-2.356,9.955-3.617,15.391-3.042
		c3.605,0.381,6.849,1.531,9.049,4.662c1.307,1.86,1.848,3.98,1.858,6.209c0.036,7.431-0.006,14.862,0.038,22.293
		c0.006,0.957-0.315,1.109-1.161,1.087c-1.939-0.051-1.94-0.009-1.94-1.938c0-6.712,0.035-13.424-0.01-20.136
		c-0.042-6.257-2.908-9.076-9.152-9.322c-6.799-0.268-12.697,2.139-18.266,5.762c-1.442,0.938-1.919,1.989-1.893,3.692
		c0.103,6.87,0.022,13.743,0.065,20.614c0.006,1.002-0.159,1.529-1.28,1.317c-0.309-0.058-0.643-0.048-0.956-0.001
		c-0.768,0.116-0.92-0.226-0.918-0.938c0.021-10.587,0.02-21.174,0.002-31.762c-0.001-0.644,0.126-0.883,0.836-0.889
		c2.294-0.017,2.294-0.051,2.294,2.196C283.192,83.861,283.192,85.006,283.192,86.3z"/>
	<path style="fill:#FFFEFF;" d="M363.996,80.59c0.027,2.63,0.027,2.63-2.606,2.63c-3.754,0-7.508-0.008-11.261,0.011
		c-0.399,0.002-0.896-0.228-1.185,0.289c-0.001,9.741-0.018,19.483,0.02,29.224c0.004,1.046-0.198,1.579-1.338,1.36
		c-0.154-0.03-0.322-0.027-0.478,0c-0.967,0.164-1.294-0.168-1.272-1.203c0.071-3.352,0.027-6.707,0.027-10.06
		c0-6.108-0.019-12.217,0.022-18.325c0.006-0.883-0.191-1.134-1.105-1.123c-4.39,0.054-8.782,0.003-13.172,0.044
		c-0.8,0.007-0.995-0.225-0.982-0.998c0.033-1.898-0.007-1.899,1.84-1.899c10.059,0,20.118-0.001,30.177,0.002
		C363.121,80.541,363.559,80.573,363.996,80.59z"/>
	<path style="fill:#FFFEFF;" d="M260.107,97.261c0,5.231-0.026,10.462,0.024,15.692c0.009,0.967-0.28,1.2-1.202,1.169
		c-1.943-0.064-1.944-0.014-1.944-1.959c0-10.102,0.021-20.205-0.029-30.307c-0.006-1.135,0.333-1.49,1.388-1.324
		c0.234,0.037,0.483,0.036,0.717,0c0.828-0.127,1.074,0.186,1.067,1.036C260.087,86.799,260.107,92.03,260.107,97.261z"/>
	<path style="fill:#B0FEFF;" d="M30.301,39.668c4.105,4.552,5.847,10.08,6.724,15.975c0.067,0.449-0.029,1.055,0.419,1.298
		c0.364,0.197,0.895,0.114,1.274-0.112c0.388-0.23,0.048-0.577-0.027-0.851c-0.395-1.428-0.304-2.819,0.11-4.24
		c1.806-6.188,1.406-12.25-0.904-18.27c-1.33-3.466-1.901-7.159-2.556-10.804c-0.677-3.767-1.264-7.552-1.814-11.34
		c-0.408-2.814,0.291-5.464,1.471-8.006c0.067-0.143,0.147-0.291,0.257-0.402c1.061-1.068,2.469-1.716,3.754-2.297
		c1.656-0.749,4.589,1.475,4.913,3.391c0.179,1.058,0.194,2.143,0.286,3.215c0.126,1.465,0.304,2.913,0.59,4.367
		c0.39,1.979-0.298,3.956-0.511,5.934c-0.328,3.046-0.978,6.068-0.625,9.161c0.242,2.121,1.03,3.996,2.45,5.604
		c0.368,0.416,0.721,0.857,1.013,1.328c0.802,1.293,0.752,2.269-0.328,3.348c-0.912,0.911-1.205,1.906-1.278,3.193
		c-0.167,2.96,0.497,5.684,1.706,8.339c0.988,2.169,1.314,4.434,0.612,6.755c-0.199,0.656,0.053,0.975,0.592,0.999
		c2.253,0.101,4.539,0.726,6.534-1.172c1.518-1.444,3.54-1.216,5.466-0.853c1.418,0.267,2.78,0.71,4.048,1.403
		c0.559,0.305,0.996,0.313,1.493-0.163c0.63-0.603,1.452-0.922,2.531-1.26c-1.805-0.716-3.384-1.323-4.946-1.97
		c-1.067-0.442-2.102-0.955-3.068-1.602c-0.744-0.498-1.046-1.134-0.905-2.037c0.393-2.519,1.455-4.717,3.141-6.605
		c1.118-1.252,1.834-1.37,3.368-0.73c9.374,3.907,18.734,7.846,28.131,11.697c2.941,1.205,3.957,2.381,3.263,6.552
		c-0.19,1.143,0.351,1.116,1.023,1.36c0.934,0.34,0.926-0.292,1.071-0.881c0.54-2.196,0.538-2.151,2.683-1.488
		c0.948,0.293,1.248,0.618,0.57,1.485c-0.365,0.467-0.602,1.032-0.921,1.537c-0.347,0.548-0.558,1.014-0.265,1.746
		c0.396,0.988-0.164,1.805-1.304,2.151c-0.96,0.292-1.41,0.914-1.557,2.016c1.174-0.845,2.187-1.682,3.558-1.836
		c0.611-0.069,1.225-0.106,1.775,0.111c2.896,1.141,5.342,2.869,6.864,5.666c0.744,1.367,0.796,2.82,0.169,4.271
		c-0.589,1.361-1.263,2.676-2.316,3.741c-0.355,0.359-0.352,0.596-0.06,0.992c0.427,0.577,0.739,1.231,0.817,1.966
		c0.269,2.538-1.95,4.148-4.906,3.574c-0.504-0.098-0.979-0.362-1.516-0.273c-1.012,0.169-2.034,0.226-2.46,1.487
		c-0.226,0.668-0.883,1.117-1.503,1.5c-2.162,1.337-4.138,0.505-4.738-1.964c-0.339-1.396-0.174-2.779,0.025-4.162
		c0.103-0.719-0.112-1.004-0.875-1.005c-1.085-0.001-2.151,0.122-3.216,0.28c-0.31,0.046-0.641,0.109-0.857,0.381
		c-0.882,1.111-2.104,1.662-3.65,2.111c1.862,1.3,2.213,3.348,3.111,5.09c0.908,1.761,2.296,2.992,4.056,3.922
		c3.073,1.624,4.68,4.234,4.745,7.738c0.008,0.438,0.157,1.083-0.47,1.167c-0.688,0.093-1.356,0.804-2.123-0.328
		c-0.703-1.037-1.079-1.837-0.771-3.09c0.264-1.075-0.765-1.25-1.534-1.418c-0.45-0.098-1.092-0.348-1.366,0.004
		c-0.315,0.404,0.234,0.844,0.455,1.245c0.23,0.419,0.527,0.803,0.732,1.232c0.147,0.307,0.366,0.713,0.016,0.987
		c-0.299,0.234-0.691,0.116-1.019-0.063c-1.085-0.594-1.737-1.631-2.524-2.522c-1.25-1.417-2.442-2.858-2.17-4.978
		c0.088-0.682-0.446-1.175-1.035-1.496c-2.764-1.511-4.714-3.726-5.977-6.616c-0.638-1.461-1.175-1.499-2.462-0.494
		c-1.546,1.207-3.269,2.138-4.936,3.156c-0.338,0.206-0.812,0.307-0.45,0.965c1.21,2.2,1.359,4.637,1.436,7.08
		c0.016,0.519,0.035,1.038,0.037,1.557c0.008,2.013,0.852,3.434,2.825,4.102c0.942,0.319,1.869,0.687,2.794,1.055
		c0.742,0.295,1.457,0.65,2.08,1.161c0.402,0.33,0.655,0.736,0.397,1.253c-0.261,0.521-0.781,0.579-1.248,0.43
		c-0.68-0.216-1.308-0.594-1.988-0.806c-0.695-0.216-1.743-0.689-2.023,0.123c-0.245,0.711,0.861,0.979,1.523,1.175
		c0.992,0.293,2.018,0.469,3.019,0.735c1.031,0.275,1.263,0.745,0.616,1.515c-1.331,1.585-2.966,2.802-5.025,3.254
		c-1.36,0.299-2.612-0.109-3.675-1.022c-1.122-0.963-1.951-2.14-2.225-3.598c-1.194-6.361-3.783-12.24-6.298-18.133
		c-0.898-2.103-0.637-3.738,0.93-5.318c1.038-1.047,2.01-2.164,2.961-3.292c0.968-1.148,0.934-1.202-0.336-1.889
		c-1.157-0.625-2.293-1.292-3.474-1.868c-1.381-0.674-2.304-1.73-2.704-3.181c-0.658-2.386-2.356-3.329-4.637-3.364
		c-2.349-0.036-4.7,0.097-7.05,0.118c-3.821,0.034-7.41-0.954-10.853-2.548c-2.14-0.991-4.298-1.878-6.71-2.003
		c-1.666-0.087-2.931-1.064-3.104-2.667c-0.385-3.57-1.779-6.859-2.548-10.315c-0.644-2.894-0.932-5.823-1.145-8.769
		c-0.24-3.317-1.587-6.233-3.401-8.951c-0.749-1.122-1.96-1.747-3.055-2.468c-3.537-2.331-7.006-4.745-10.054-7.71
		c-3.322-3.233-6.065-6.88-7.862-11.181c-0.887-2.123-0.683-2.547,1.416-3.434c0.402-0.17,0.883-0.298,1.158-0.6
		c1.708-1.869,4.076-2.212,6.329-2.82c2.285-0.616,3.535,0.022,4.153,2.321c0.836,3.113,1.473,6.275,2.618,9.307
		c1.526,4.04,4.073,7.48,6.386,11.054c0.75,1.158,1.997,1.807,3.28,2.316c1.52,0.603,3.018,1.254,4.406,2.132
		c1.977,1.25,2.22,2.919,0.652,4.674C31.323,38.706,30.815,39.159,30.301,39.668z M108.442,83.935
		c0.622-0.999,0.207-1.91-0.323-2.788c-1.242-2.059-3.067-3.439-5.263-4.302c-1.285-0.505-2.538-0.196-3.531,0.768
		c-0.799,0.776-0.942,1.802-0.413,2.751c1.506,2.705,3.839,4.258,6.546,4.701C106.845,85.02,107.838,84.903,108.442,83.935z
		 M95.111,70.743c0.026,0.26-0.19,0.683,0.356,0.687c0.932-1.073,1.878-2.094,1.427-3.752c-0.198-0.726,0.214-1.495,0.671-2.103
		c0.537-0.715,0.124-1.119-0.415-1.426c-0.566-0.322-1.191-0.491-1.671,0.208c-0.727,1.058-1.441,2.1-0.68,3.471
		c0.182,0.328,0.16,0.769,0.231,1.158C95.181,69.568,95.052,70.161,95.111,70.743z M95.778,82.745
		c-0.536,1.089-0.672,2.147-0.314,3.244c0.294,0.901,0.691,1.736,1.807,1.796c1.108,0.059,1.872-0.461,2.434-1.682
		C97.021,86.447,96.147,84.912,95.778,82.745z"/>
	<path style="fill:#86A1B1;" d="M95.031,68.988c0.534,0.745-0.127,1.703,0.436,2.443c-0.246,0.4-0.459,0.487-0.47-0.097
		C94.981,70.552,95.017,69.77,95.031,68.988z"/>
	<path style="fill:#FFFEFF;" d="M310.241,51.044c0.646,0.111,1.237,0.199,1.823,0.314c5.063,0.997,7.083,3.862,6.508,9.122
		c-0.43,3.937-2.521,6.097-6.508,7.139c-1.939,0.507-3.92,0.729-5.922,0.731c-8.185,0.008-16.371-0.017-24.556,0.03
		c-1.024,0.006-1.219-0.284-1.216-1.255c0.038-10.343,0.044-20.686-0.006-31.029c-0.005-1.104,0.315-1.291,1.331-1.286
		c7.786,0.043,15.572,0.02,23.358,0.026c1.559,0.001,3.109,0.156,4.63,0.492c4.614,1.02,6.853,4.087,6.495,8.851
		C315.905,47.832,314.532,49.431,310.241,51.044z M290.508,54.557c-0.753-0.012-1.059,0.15-1.026,0.983
		c0.068,1.713,0.058,3.433,0.003,5.147c-0.024,0.752,0.215,0.941,0.945,0.932c3.311-0.037,6.623-0.016,9.935-0.016
		c1.953,0,3.908,0.055,5.854-0.199c2.031-0.265,3.068-1.218,3.167-2.932c0.14-2.421-0.918-3.55-3.563-3.774
		c-2.588-0.22-5.183-0.089-7.415-0.124C295.535,54.572,293.021,54.597,290.508,54.557z M290.508,41.612
		c-0.752-0.015-1.069,0.148-1.025,0.982c0.072,1.392,0.085,2.795-0.003,4.185c-0.061,0.952,0.306,1.106,1.156,1.097
		c4.027-0.042,8.055-0.012,12.083-0.024c0.795-0.002,1.593-0.04,2.366-0.271c1.807-0.54,2.502-1.686,2.142-3.537
		c-0.249-1.282-1.277-2.124-2.968-2.307c-2.424-0.263-4.861-0.034-6.853-0.11C294.814,41.627,292.66,41.655,290.508,41.612z"/>
	<path style="fill:#FFFEFF;" d="M352.736,65.137c-4.697,2.411-9.542,3.56-14.607,3.84c-3.489,0.193-6.942,0.027-10.238-1.286
		c-3.45-1.374-5.736-3.74-6.019-7.598c-0.303-4.135,1.481-7.15,5.142-9.075c3.697-1.944,7.726-2.693,11.797-3.266
		c4.386-0.617,8.799-0.969,13.221-1.184c0.754-0.037,0.744-0.37,0.696-0.882c-0.125-1.351-0.835-2.293-2.03-2.892
		c-2.311-1.158-4.816-1.349-7.332-1.398c-5.919-0.116-11.678,0.833-17.25,2.818c-1,0.356-1.107,0.114-1.082-0.8
		c0.056-2.035,0.033-4.073,0.007-6.11c-0.007-0.542,0.08-0.89,0.69-1.023c8.276-1.804,16.59-2.873,25.03-1.236
		c2.523,0.489,4.906,1.387,6.987,2.946c2.701,2.023,4.089,4.725,4.092,8.111c0.006,7.109-0.007,14.218,0.016,21.327
		c0.002,0.689-0.096,0.969-0.888,0.949c-2.434-0.06-4.872-0.065-7.306,0.001c-0.848,0.023-0.996-0.292-0.939-1.017
		C352.778,66.687,352.736,66.005,352.736,65.137z M338.128,54.469c-2.034,0.392-4.057,0.843-5.823,2.022
		c-0.956,0.639-1.342,1.545-1.232,2.668c0.102,1.049,0.815,1.617,1.707,1.96c0.626,0.241,1.288,0.439,1.95,0.524
		c6.018,0.771,11.623-0.485,16.892-3.447c0.88-0.495,1.26-1.071,1.127-2.075c-0.129-0.98,0.411-2.299-0.214-2.87
		c-0.519-0.474-1.816-0.097-2.768-0.097C345.867,53.451,341.972,53.729,338.128,54.469z"/>
</g>
</svg>
