<?xml version="1.0" encoding="iso-8859-1"?>
<!-- Generator: Adobe Illustrator 27.1.1, SVG Export Plug-In . SVG Version: 6.00 Build 0)  -->
<svg version="1.1" id="Layer_1" xmlns="http://www.w3.org/2000/svg" xmlns:xlink="http://www.w3.org/1999/xlink" x="0px" y="0px"
	 viewBox="0 0 151.549 152.898" style="enable-background:new 0 0 151.549 152.898;" xml:space="preserve">
<g>
	<path style="fill:#28B2DE;" d="M25.874,68.198c2.006,1.97,4.341,2.828,7.046,3.004c1.888,0.123,3.51,1.252,5.22,2.007
		c0.579,0.255,0.307,0.766,0.309,1.156c0.051,9.154,2.663,17.512,8.215,24.779c8.966,11.736,20.937,17.513,35.721,16.817
		c19.632-0.924,35.604-15.322,38.976-34.791c3.798-21.932-11.169-43.629-33.002-47.71c-13.144-2.456-24.919,0.606-35.24,9.15
		c-0.338,0.28-0.677,0.557-1.018,0.833c-0.027,0.022-0.071,0.024-0.107,0.036c-1.187-1.708-1.192-2.252-0.168-3.908
		c1.799-2.907,1.7-5.834-0.088-8.689c-0.469-0.749-0.43-1.044,0.358-1.5c10.864-6.288,22.511-8.789,34.976-7.203
		c24.323,3.095,43.55,21.781,47.527,45.768c1.774,10.703-0.6,20.393-5.81,29.65c-4.566,8.112-10.134,15.492-16.226,22.49
		c-9.616,11.047-20.175,21.128-31.38,30.549c-0.829,0.697-1.268,0.619-2.034-0.029c-14.483-12.26-28.064-25.399-39.493-40.619
		c-5.119-6.818-9.584-14.022-12.484-22.118c-2.184-6.097-2.462-12.312-1.544-18.645C25.673,68.923,25.77,68.628,25.874,68.198z"/>
	<path style="fill:#1C4F6E;" d="M30.141,39.842c4.105,4.552,5.847,10.08,6.724,15.975c0.067,0.449-0.029,1.055,0.419,1.298
		c0.364,0.197,0.895,0.114,1.274-0.112c0.388-0.23,0.048-0.577-0.027-0.851c-0.395-1.428-0.304-2.819,0.11-4.24
		c1.806-6.188,1.406-12.25-0.904-18.27c-1.33-3.466-1.901-7.159-2.556-10.804c-0.677-3.767-1.264-7.552-1.814-11.34
		c-0.408-2.814,0.291-5.464,1.471-8.006c0.067-0.143,0.147-0.291,0.257-0.402c1.061-1.068,2.469-1.716,3.754-2.297
		c1.656-0.749,4.589,1.475,4.913,3.391c0.179,1.058,0.194,2.143,0.286,3.215c0.126,1.465,0.304,2.913,0.59,4.367
		c0.39,1.979-0.298,3.956-0.511,5.934c-0.328,3.046-0.978,6.068-0.625,9.161c0.242,2.121,1.03,3.996,2.45,5.604
		c0.368,0.416,0.721,0.857,1.013,1.328c0.802,1.293,0.752,2.269-0.328,3.348c-0.912,0.911-1.205,1.906-1.278,3.193
		c-0.167,2.96,0.497,5.684,1.706,8.339c0.988,2.169,1.314,4.434,0.612,6.755c-0.199,0.656,0.053,0.975,0.592,0.999
		c2.253,0.101,4.539,0.726,6.534-1.172c1.518-1.444,3.54-1.216,5.466-0.853c1.418,0.267,2.78,0.71,4.048,1.403
		c0.559,0.305,0.996,0.313,1.493-0.163c0.63-0.603,1.452-0.922,2.531-1.26c-1.805-0.716-3.384-1.323-4.946-1.97
		c-1.067-0.442-2.102-0.955-3.068-1.602c-0.744-0.498-1.046-1.134-0.905-2.037c0.393-2.519,1.455-4.717,3.141-6.605
		c1.118-1.252,1.834-1.37,3.368-0.73c9.374,3.907,18.734,7.846,28.131,11.697c2.941,1.205,3.957,2.381,3.263,6.552
		c-0.19,1.143,0.351,1.116,1.023,1.36c0.934,0.34,0.926-0.292,1.071-0.881c0.54-2.196,0.538-2.151,2.683-1.488
		c0.948,0.293,1.248,0.618,0.57,1.485c-0.365,0.467-0.602,1.032-0.921,1.537c-0.347,0.548-0.558,1.014-0.265,1.746
		c0.396,0.988-0.164,1.805-1.304,2.151c-0.96,0.292-1.41,0.914-1.557,2.016c1.174-0.845,2.187-1.682,3.558-1.836
		c0.611-0.069,1.225-0.106,1.775,0.111c2.896,1.141,5.342,2.869,6.864,5.666c0.744,1.367,0.796,2.82,0.169,4.271
		c-0.589,1.361-1.263,2.676-2.316,3.741c-0.355,0.359-0.352,0.596-0.06,0.992c0.427,0.577,0.739,1.231,0.817,1.966
		c0.269,2.538-1.95,4.148-4.906,3.574c-0.504-0.098-0.979-0.362-1.516-0.273c-1.012,0.169-2.034,0.226-2.46,1.487
		c-0.226,0.668-0.883,1.117-1.503,1.5c-2.162,1.337-4.138,0.505-4.738-1.964c-0.339-1.396-0.174-2.779,0.025-4.162
		c0.103-0.719-0.112-1.004-0.875-1.005c-1.085-0.001-2.151,0.122-3.216,0.28c-0.31,0.046-0.641,0.109-0.857,0.381
		c-0.882,1.111-2.104,1.662-3.65,2.111c1.862,1.3,2.213,3.348,3.111,5.09c0.908,1.761,2.296,2.992,4.056,3.922
		c3.073,1.624,4.68,4.234,4.745,7.738c0.008,0.438,0.157,1.083-0.47,1.167c-0.688,0.093-1.356,0.804-2.123-0.328
		c-0.703-1.037-1.079-1.837-0.771-3.09c0.264-1.075-0.765-1.25-1.534-1.418c-0.45-0.098-1.092-0.348-1.366,0.004
		c-0.315,0.404,0.234,0.844,0.455,1.245c0.23,0.419,0.527,0.803,0.732,1.232c0.147,0.307,0.366,0.713,0.016,0.987
		c-0.299,0.234-0.691,0.116-1.019-0.063c-1.085-0.594-1.737-1.631-2.524-2.522c-1.25-1.417-2.442-2.858-2.17-4.978
		c0.088-0.682-0.446-1.175-1.035-1.496c-2.764-1.511-4.714-3.726-5.977-6.616c-0.638-1.461-1.175-1.499-2.462-0.494
		c-1.546,1.207-3.269,2.138-4.936,3.156c-0.338,0.206-0.812,0.307-0.45,0.965c1.21,2.2,1.359,4.637,1.436,7.08
		c0.016,0.519,0.035,1.038,0.037,1.557c0.008,2.013,0.852,3.434,2.825,4.102c0.942,0.319,1.869,0.687,2.794,1.055
		c0.742,0.295,1.457,0.65,2.08,1.161c0.402,0.33,0.655,0.736,0.397,1.253c-0.261,0.521-0.781,0.579-1.248,0.43
		c-0.68-0.216-1.308-0.594-1.988-0.806c-0.695-0.216-1.743-0.689-2.023,0.123c-0.245,0.711,0.861,0.979,1.523,1.175
		c0.992,0.293,2.018,0.469,3.019,0.735c1.031,0.275,1.263,0.745,0.616,1.515c-1.331,1.585-2.966,2.802-5.025,3.254
		c-1.36,0.299-2.612-0.109-3.675-1.022c-1.122-0.963-1.951-2.14-2.225-3.598c-1.194-6.361-3.783-12.24-6.298-18.133
		c-0.898-2.103-0.637-3.738,0.93-5.318c1.038-1.047,2.01-2.164,2.961-3.292c0.968-1.148,0.934-1.202-0.336-1.889
		c-1.157-0.625-2.293-1.292-3.474-1.868c-1.381-0.674-2.304-1.73-2.704-3.181c-0.658-2.386-2.356-3.329-4.637-3.364
		c-2.349-0.036-4.7,0.097-7.05,0.118c-3.821,0.034-7.41-0.954-10.853-2.548c-2.14-0.991-4.298-1.878-6.71-2.003
		c-1.666-0.087-2.931-1.064-3.104-2.667c-0.385-3.57-1.779-6.859-2.548-10.315c-0.644-2.894-0.932-5.823-1.145-8.769
		c-0.24-3.317-1.587-6.233-3.401-8.951c-0.749-1.122-1.96-1.747-3.055-2.468c-3.537-2.331-7.006-4.745-10.054-7.71
		c-3.322-3.233-6.065-6.88-7.862-11.181c-0.887-2.123-0.683-2.547,1.416-3.434c0.402-0.17,0.883-0.298,1.158-0.6
		c1.708-1.869,4.076-2.212,6.329-2.82c2.285-0.616,3.535,0.022,4.153,2.321c0.836,3.113,1.473,6.275,2.618,9.307
		c1.526,4.04,4.073,7.48,6.386,11.054c0.75,1.158,1.997,1.807,3.28,2.316c1.52,0.603,3.018,1.254,4.406,2.132
		c1.977,1.25,2.22,2.919,0.652,4.674C31.162,38.88,30.655,39.333,30.141,39.842z"/>
	<path style="fill:#D8FEFF;" d="M105.296,85.24c-2.707-0.443-5.039-1.995-6.546-4.701c-0.528-0.949-0.385-1.975,0.413-2.751
		c0.993-0.964,2.246-1.274,3.531-0.768c2.196,0.863,4.021,2.244,5.263,4.302c0.53,0.878,0.945,1.789,0.323,2.788
		C107.678,85.078,106.685,85.195,105.296,85.24z"/>
	<path style="fill:#D8FEFF;" d="M94.871,69.162c-0.072-0.389-0.05-0.83-0.231-1.158c-0.761-1.371-0.048-2.413,0.68-3.471
		c0.48-0.699,1.105-0.53,1.671-0.208c0.539,0.307,0.952,0.711,0.415,1.426c-0.457,0.608-0.869,1.377-0.671,2.103
		c0.452,1.658-0.495,2.679-1.427,3.752c-0.546-0.004-0.33-0.427-0.356-0.687C94.891,70.335,95.02,69.742,94.871,69.162z"/>
	<path style="fill:#D8FEFF;" d="M99.544,86.278c-0.562,1.221-1.326,1.741-2.434,1.682c-1.116-0.06-1.512-0.895-1.807-1.796
		c-0.358-1.097-0.222-2.155,0.314-3.244C95.986,85.086,96.86,86.621,99.544,86.278z"/>
	<path style="fill:#86A1B1;" d="M94.871,69.162c0.534,0.745-0.127,1.703,0.436,2.443c-0.246,0.4-0.459,0.487-0.47-0.097
		C94.821,70.727,94.857,69.944,94.871,69.162z"/>
</g>
</svg>
