<?xml version="1.0" encoding="iso-8859-1"?>
<!-- Generator: Adobe Illustrator 27.1.1, SVG Export Plug-In . SVG Version: 6.00 Build 0)  -->
<svg version="1.1" xmlns="http://www.w3.org/2000/svg" xmlns:xlink="http://www.w3.org/1999/xlink" x="0px" y="0px"
	 viewBox="0 0 529.871 534.769" style="enable-background:new 0 0 529.871 534.769;" xml:space="preserve">
<g id="Bg">
</g>
<g id="Layer_1_1_">
	<g>
		<path style="fill-rule:evenodd;clip-rule:evenodd;fill:#33CC33;" d="M120.07,1.755h291.598
			c65.204,0,118.444,53.358,118.444,118.452v294.616c0,65.217-53.24,118.573-118.444,118.573H120.07
			c-65.214,0-118.451-53.356-118.451-118.573V120.207C1.619,55.113,54.857,1.755,120.07,1.755L120.07,1.755z"/>
		<path style="fill-rule:evenodd;clip-rule:evenodd;fill:#FEFEFE;" d="M269.016,408.414c-29.761,0-57.355-8.955-80.589-24.08
			l-56.135,17.788l18.15-54.085c-17.545-23.713-27.951-53.479-27.951-85.3c0-4.718,0.361-9.195,0.967-13.913
			c7.14-73.686,69.815-131.278,145.558-131.278c76.95,0,140.23,59.165,146.153,133.94c0.243,3.87,0.243,7.742,0.243,11.251
			C415.413,342.956,349.722,408.414,269.016,408.414L269.016,408.414z M442.995,258.623
			C440.7,165.095,363.751,90.201,269.016,90.201c-93.656,0-169.999,73.08-173.868,165.155c-0.244,2.421-0.244,5.082-0.244,7.381
			c0,32.789,9.195,63.278,24.928,89.536l-31.459,92.681l96.554-30.611c24.926,13.671,53.715,21.294,84.09,21.294
			c96.184,0,174.35-77.194,174.35-172.9C443.367,261.286,442.995,260.075,442.995,258.623z"/>
		<path style="fill-rule:evenodd;clip-rule:evenodd;fill:#FEFEFE;" d="M319.833,282.458c-4.243-1.089-6.898-2.057-9.924,2.421
			c-4.359,6.896-13.553,22.02-22.504,17.545c-4.475-2.057-18.144-6.535-34.48-21.054c-12.708-11.373-21.414-25.045-23.722-29.158
			c-3.745-7.018,8.105-14.399,12.464-23.231c1.449-2.904,0.846-5.323-0.36-7.381c-0.847-2.057-9.438-23.109-13.067-31.458
			c-3.513-8.591-7.142-7.138-9.438-7.138c-23.721,0-34.851,16.818-34.851,40.411c0,4.718,0.974,9.801,2.423,14.277
			c4.232,15.124,13.67,27.344,15.13,29.401c2.052,2.903,29.403,46.945,72.833,63.886c43.675,16.936,43.675,11.25,51.42,10.644
			c7.629-0.603,25.17-10.043,28.799-20.207c3.513-9.798,3.513-18.391,2.296-20.204C355.403,298.673,319.833,282.58,319.833,282.458z
			"/>
	</g>
</g>
</svg>
